# xmcd CD database file
#
# Track frame offsets:
#	150
#	14115
#	38085
#	57308
#	73539
#	93291
#	104781
#	116046
#	132142
#	145307
#	164132
#	199381
#	217086
#
# Disc length: 3094 seconds
#
# Revision: 2
# Processed by: cddbd v1.5.1PL2 Copyright (c) Steve Scherf et al.
# Submitted via: CDex 1.50beta10
#
DISCID=d20c140d
DTITLE=Julie Driscoll, Brian Auger and The Trinity - Ready-Mount
DYEAR=1969
DGENRE=
TTITLE0=Let the Sunshine in
TTITLE1=The Road to Cairo
TTITLE2=Take me to the Water, I'm going back home
TTITLE3=Why am I treated so bad
TTITLE4=Light my Fire
TTITLE5=Save me
TTITLE6=A Kind of Love In
TTITLE7=The wheels on fire
TTITLE8=Break it up
TTITLE9=Tramp
TTITLE10=Season of the witch
TTITLE11=Save the country
TTITLE12=Indian Rope Man
EXTD=YEAR: 1969
EXTT0=
EXTT1=
EXTT2=
EXTT3=
EXTT4=
EXTT5=
EXTT6=
EXTT7=
EXTT8=
EXTT9=
EXTT10=
EXTT11=
EXTT12=
PLAYORDER=
